HIERARCHY
ROOT Root
{
  OFFSET 6.90105 11.8871 -0.957331
  CHANNELS 6 Xposition Yposition Zposition Zrotation Xrotation Yrotation
  JOINT Spine
  {
    OFFSET 5.3114 0 0
    CHANNELS 3 Zrotation Xrotation Yrotation
    JOINT Spine1
    {
      OFFSET 2.79004 0 0
      CHANNELS 3 Zrotation Xrotation Yrotation
      JOINT Neck
      {
        OFFSET 1.43377 0 0
        CHANNELS 3 Zrotation Xrotation Yrotation
        JOINT Head
        {
          OFFSET 1.86043 0 0
          CHANNELS 3 Zrotation Xrotation Yrotation
          End Site
          {
            OFFSET 0 0 0
          }
        }
      }
      JOINT LeftArm
      {
        OFFSET 0.0387506 0 2.55754
        CHANNELS 3 Zrotation Xrotation Yrotation
        JOINT LeftForeArm
        {
          OFFSET 4.24845 0 0
          CHANNELS 3 Zrotation Xrotation Yrotation
          JOINT LeftHand
          {
            OFFSET 4.01008 0 0
            CHANNELS 3 Zrotation Xrotation Yrotation
            End Site
            {
              OFFSET 0 0 0
            }
          }
        }
      }
      JOINT RightArm
      {
        OFFSET 0.0387506 0 -2.55754
        CHANNELS 3 Zrotation Xrotation Yrotation
        JOINT RightForeArm
        {
          OFFSET -4.24845 0 0
          CHANNELS 3 Zrotation Xrotation Yrotation
          JOINT RightHand
          {
            OFFSET -4.01009 0 0
            CHANNELS 3 Zrotation Xrotation Yrotation
            End Site
            {
              OFFSET 0 0 0
            }
          }
        }
      }
    }
  }
  JOINT LeftUpLeg
  {
    OFFSET -1.23318 0 2.05692
    CHANNELS 3 Zrotation Xrotation Yrotation
    JOINT LeftLeg
    {
      OFFSET 5.46397 0 0
      CHANNELS 3 Zrotation Xrotation Yrotation
      JOINT LeftFoot
      {
        OFFSET 4.68898 0 0
        CHANNELS 3 Zrotation Xrotation Yrotation
        End Site
        {
          OFFSET 0 0 0
        }
      }
    }
  }
  JOINT RightUpLeg
  {
    OFFSET -1.24454 0 -2.05007
    CHANNELS 3 Zrotation Xrotation Yrotation
    JOINT RightLeg
    {
      OFFSET -5.46397 0 0
      CHANNELS 3 Zrotation Xrotation Yrotation
      JOINT RightFoot
      {
        OFFSET -4.68901 0 0
        CHANNELS 3 Zrotation Xrotation Yrotation
        End Site
        {
          OFFSET 0 0 0
        }
      }
    }
  }
}
MOTION
Frames: 11
Frame Time: 0.0083333
0 0 0 140.112 0.489729 -5.36301 13.2549 3.20511 1.69081 -1.41191 0.757335 1.48498 -8.53345 -2.57121 -7.39429 -22.1942 -6.84468 8.25055 -6.79771 -41.8021 -154.094 32.7086 0.948768 19.2381 -2.65364 -18.2333 174.029 161.79 -30.4489 -160.769 35.0941 1.45384 20.5948 -1.96977 -13.7435 174.218 -106.142 -3.97551 -178.458 -95.564 0.708818 0.723465 29.3888 -5.92835 -176.23 74.8735 3.16229 177.594 -90.7238 0.755992 0.349407 11.9824 4.24635 -179.811 
0 0 0 140.112 0.489729 -5.36301 13.2549 3.20511 1.69081 -1.41191 0.757335 1.48498 -8.53345 -2.57121 -7.39429 -22.1942 -6.84468 8.25055 -6.79771 -41.8021 -154.094 32.7086 0.948768 19.2381 -2.65364 -18.2333 174.029 161.79 -30.4489 -160.769 35.0941 1.45384 20.5948 -1.96977 -13.7435 174.218 -106.142 -3.97551 -178.458 -95.564 0.708818 0.723465 29.3888 -5.92835 -176.23 74.8735 3.16229 177.594 -90.7238 0.755992 0.349407 11.9824 4.24635 -179.811 
0 0 0 140.112 0.489729 -5.36301 13.2549 3.20511 1.69081 -1.41191 0.757335 1.48498 -8.53345 -2.57121 -7.39429 -22.1942 -6.84468 8.25055 -6.79771 -41.8021 -154.094 32.7086 0.948768 19.2381 -2.65364 -18.2333 174.029 161.79 -30.4489 -160.769 35.0941 1.45384 20.5948 -1.96977 -13.7435 174.218 -106.142 -3.97551 -178.458 -95.564 0.708818 0.723465 29.3888 -5.92835 -176.23 74.8735 3.16229 177.594 -90.7238 0.755992 0.349407 11.9824 4.24635 -179.811 
0 0 0 140.112 0.489729 -5.36301 13.2549 3.20511 1.69081 -1.41191 0.757335 1.48498 -8.53345 -2.57121 -7.39429 -22.1942 -6.84468 8.25055 -6.79771 -41.8021 -154.094 32.7086 0.948768 19.2381 -2.65364 -18.2333 174.029 161.79 -30.4489 -160.769 35.0941 1.45384 20.5948 -1.96977 -13.7435 174.218 -106.142 -3.97551 -178.458 -95.564 0.708818 0.723465 29.3888 -5.92835 -176.23 74.8735 3.16229 177.594 -90.7238 0.755992 0.349407 11.9824 4.24635 -179.811 
0 0 0 -178.443 -37.4283 90.532 7.17138 3.55506 1.20272 2.70321 1.14248 0.541789 -0.0100157 -4.23615 -8.13845 -40.5351 -12.6503 6.15672 -9.28756 -25.5997 -163.517 43.619 3.74009 25.3058 -6.83295 -40.2495 171.948 169.901 -9.23291 -166.152 30.5664 0.547851 18.008 -2.28386 -15.8322 174.137 -94.3127 2.9744 179.532 -87.0348 0.754489 0.510872 38.7875 -1.62841 -176.885 87.7924 2.67655 174.888 -86.959 0.510661 0.265614 19.1882 16.147 176.156 
0 0 0 -178.443 -37.4283 90.532 7.17138 3.55506 1.20272 2.70321 1.14248 0.541789 -0.0100157 -4.23615 -8.13845 -40.5351 -12.6503 6.15672 -9.28756 -25.5997 -163.517 43.619 3.74009 25.3058 -6.83295 -40.2495 171.948 169.901 -9.23291 -166.152 30.5664 0.547851 18.008 -2.28386 -15.8322 174.137 -94.3127 2.9744 179.532 -87.0348 0.754489 0.510872 38.7875 -1.62841 -176.885 87.7924 2.67655 174.888 -86.959 0.510661 0.265614 19.1882 16.147 176.156 
0 0 0 -146.086 -7.31943 165.161 9.92693 2.33021 -1.4334 -2.1034 0.719797 1.04463 -3.07873 -0.0545458 -5.06456 -39.571 0.0656543 4.91761 -13.5535 -23.0392 -163.821 36.0592 1.6773 21.1378 -5.62483 -34.8925 172.686 179.063 -0.622696 -163.219 24.1863 -0.36669 14.2929 -0.0841482 -0.598853 174.454 -98.2014 -1.3719 177.124 -86.6586 0.908338 0.502049 35.0472 3.44282 -179.928 86.4004 4.23318 175.493 -85.2687 0.679094 0.229296 27.3802 5.35976 178.988 
0 0 0 -178.443 -37.4283 90.532 7.17138 3.55506 1.20272 2.70321 1.14248 0.541789 -0.0100157 -4.23615 -8.13845 -40.5351 -12.6503 6.15672 -9.28756 -25.5997 -163.517 43.619 3.74009 25.3058 -6.83295 -40.2495 171.948 169.901 -9.23291 -166.152 30.5664 0.547851 18.008 -2.28386 -15.8322 174.137 -94.3127 2.9744 179.532 -87.0348 0.754489 0.510872 38.7875 -1.62841 -176.885 87.7924 2.67655 174.888 -86.959 0.510661 0.265614 19.1882 16.147 176.156 
0 0 0 -178.443 -37.4283 90.532 7.17138 3.55506 1.20272 2.70321 1.14248 0.541789 -0.0100157 -4.23615 -8.13845 -40.5351 -12.6503 6.15672 -9.28756 -25.5997 -163.517 43.619 3.74009 25.3058 -6.83295 -40.2495 171.948 169.901 -9.23291 -166.152 30.5664 0.547851 18.008 -2.28386 -15.8322 174.137 -94.3127 2.9744 179.532 -87.0348 0.754489 0.510872 38.7875 -1.62841 -176.885 87.7924 2.67655 174.888 -86.959 0.510661 0.265614 19.1882 16.147 176.156 
0 0 0 -146.086 -7.31943 165.161 9.92693 2.33021 -1.4334 -2.1034 0.719797 1.04463 -3.07873 -0.0545458 -5.06456 -39.571 0.0656543 4.91761 -13.5535 -23.0392 -163.821 36.0592 1.6773 21.1378 -5.62483 -34.8925 172.686 179.063 -0.622696 -163.219 24.1863 -0.36669 14.2929 -0.0841482 -0.598853 174.454 -98.2014 -1.3719 177.124 -86.6586 0.908338 0.502049 35.0472 3.44282 -179.928 86.4004 4.23318 175.493 -85.2687 0.679094 0.229296 27.3802 5.35976 178.988 
0 0 0 152.877 0.681773 -4.64638 14.3101 3.22551 1.26457 -2.75962 0.754582 1.88903 -6.05801 -2.70136 -6.76685 -29.7967 -7.54819 6.55156 15.0597 -44.7517 -152.994 25.7718 -0.178602 15.2209 -1.5183 -10.6765 174.313 176.582 -14.9964 -161.722 33.7463 1.15916 19.8319 0.216745 1.54196 174.452 -103.682 -5.12917 -179.504 -70.4855 0.925767 0.0883103 22.115 -7.6618 -176.321 76.7398 -2.7579 176.775 -66.5566 0.842094 -0.155305 8.16964 0.934218 -179.13 
